# xmcd CD database file
#
# Track frame offsets:
#	150
#	51632
#	109031
#	135286
#	168373
#	217367
#	242767
#
# Disc length: 3579 seconds
#
# Revision: 0
# Processed by: cddbd v1.5.2PL0 Copyright (c) Steve Scherf et al.
# Submitted via: CDex 1.70beta2
#
DISCID=660df907
DTITLE=Friedrich, Jürgen 4tet - I
DYEAR=1998
DGENRE=Jazz
TTITLE0=inner garden
TTITLE1=summerflood
TTITLE2=light in green
TTITLE3=opal
TTITLE4=baghira
TTITLE5=the right mistake
TTITLE6=my shy i
EXTD=YEAR: 1998
EXTT0=
EXTT1=
EXTT2=
EXTT3=
EXTT4=
EXTT5=
EXTT6=
PLAYORDER=
